<?xml version="1.0" standalone="no"?>
<!DOCTYPE svg PUBLIC "-//W3C//DTD SVG 20010904//EN"
 "http://www.w3.org/TR/2001/REC-SVG-20010904/DTD/svg10.dtd">
<svg version="1.0" xmlns="http://www.w3.org/2000/svg"
 width="300.000000pt" height="300.000000pt" viewBox="0 0 300.000000 300.000000"
 preserveAspectRatio="xMidYMid meet">
<metadata>
Created by potrace 1.10, written by Peter Selinger 2001-2011
</metadata>
<g transform="translate(0.000000,300.000000) scale(0.100000,-0.100000)"
fill="#000000" stroke="none">
<path d="M885 2159 c-41 -11 -98 -61 -136 -116 l-31 -45 48 8 c60 10 91 11
124 2 22 -6 29 -1 54 38 34 54 30 65 -11 27 -23 -22 -40 -28 -76 -29 -26 0
-47 3 -47 8 0 5 -6 6 -12 2 -7 -4 -2 5 12 21 32 35 95 65 140 65 42 0 105 -28
142 -62 27 -26 63 -87 55 -94 -7 -7 -67 18 -62 26 9 14 -20 39 -61 53 l-42 14
-12 -40 c-6 -21 -9 -41 -7 -43 3 -3 22 6 42 21 52 35 77 33 42 -3 -15 -15 -27
-30 -27 -33 0 -2 17 -5 38 -5 35 -1 71 -16 114 -46 26 -19 29 -6 13 50 -41
137 -175 218 -300 181z"/>
<path d="M1365 2146 c-74 -34 -134 -108 -148 -183 -8 -40 6 -43 57 -12 19 11
51 21 70 22 20 1 36 5 36 8 0 3 -13 18 -30 34 -28 27 -30 27 -30 8 0 -14 -8
-24 -22 -29 -13 -4 -26 -12 -30 -18 -13 -20 -20 2 -8 26 59 114 180 166 281
120 48 -21 96 -59 87 -68 -3 -3 -32 -7 -64 -10 -46 -3 -62 0 -78 14 -12 10
-30 24 -41 32 -19 15 -19 15 -2 -12 50 -80 44 -75 92 -68 24 4 70 3 102 -1 32
-4 59 -6 62 -4 8 9 -49 84 -84 110 -76 59 -167 70 -250 31z"/>
<path d="M1402 2067 c-7 -8 -21 -13 -31 -10 -39 10 -27 -14 20 -39 54 -28 60
-22 36 36 -11 25 -14 26 -25 13z"/>
<path d="M926 1920 c-61 -24 -110 -70 -144 -135 -22 -42 -27 -67 -30 -152 -2
-59 0 -103 5 -103 5 0 17 18 27 41 10 22 32 56 48 75 27 31 30 39 24 79 -8 53
9 62 25 15 6 -16 14 -30 18 -30 11 0 54 60 72 101 21 45 74 87 120 94 30 5 32
4 15 -7 -81 -56 -109 -109 -104 -198 l3 -55 19 37 c16 33 78 90 110 101 6 3 1
15 -13 31 -30 32 -22 43 16 22 60 -33 62 -38 75 -149 8 -80 8 -136 0 -231 -11
-113 -53 -324 -70 -351 -4 -5 -12 -26 -17 -45 l-11 -35 -72 -3 c-60 -2 -72 -6
-72 -20 0 -16 42 -17 632 -16 573 2 633 3 636 18 3 15 -42 16 -496 16 -391 0
-501 -3 -505 -12 -9 -25 -19 1 -12 31 l7 31 514 0 c450 0 514 2 514 15 0 13
-62 15 -500 15 -327 0 -500 -3 -500 -10 0 -5 -4 -10 -9 -10 -4 0 -2 33 6 73
37 189 38 396 3 558 -16 77 -17 85 -1 96 43 31 55 42 44 43 -6 0 -25 -11 -41
-25 l-30 -25 -37 30 c-20 16 -45 32 -56 35 -24 8 -24 21 -1 34 64 36 -127 55
-212 21z m54 -42 c-12 -13 -31 -42 -42 -66 -19 -39 -23 -42 -50 -37 -38 9 -58
-9 -58 -51 0 -22 -9 -42 -26 -61 l-27 -28 7 49 c8 61 51 141 93 173 29 23 113
55 122 47 1 -1 -7 -13 -19 -26z m94 -96 c-34 -30 -39 -23 -19 24 15 35 16 36
30 18 13 -17 12 -21 -11 -42z m186 -161 c13 -47 7 -350 -7 -381 -6 -14 -16
-52 -23 -85 -7 -33 -16 -69 -20 -80 -5 -11 -11 -28 -14 -37 -3 -11 -15 -18
-32 -18 -21 0 -25 4 -19 18 10 24 30 90 43 137 20 75 42 290 43 430 1 114 3
132 11 95 5 -25 13 -60 18 -79z"/>
<path d="M1285 1926 c-38 -16 -18 -30 33 -21 52 8 126 -39 153 -98 10 -23 30
-55 43 -71 23 -28 24 -28 35 -8 14 25 15 55 2 33 -14 -21 -47 3 -70 52 -11 23
-28 52 -37 65 -16 21 -15 22 4 22 35 0 131 -40 153 -63 34 -36 62 -108 67
-170 4 -58 4 -59 -17 -45 -12 7 -33 36 -46 63 -22 46 -24 48 -25 21 0 -17 9
-39 20 -51 10 -11 33 -45 49 -75 l29 -54 8 38 c18 96 -27 246 -93 308 -59 56
-232 87 -308 54z"/>
<path d="M1586 1892 c5 -5 47 -14 93 -21 46 -7 91 -16 100 -21 9 -5 36 -16 61
-25 205 -76 391 -314 394 -505 l1 -65 -465 -3 c-289 -1 -468 -6 -474 -12 -7
-7 158 -10 483 -10 l494 0 -6 68 c-27 285 -263 539 -551 591 -71 13 -144 14
-130 3z"/>
<path d="M1335 1868 c49 -38 73 -67 78 -96 8 -42 -1 -44 -47 -9 -38 27 -42 35
-33 52 10 20 10 20 -12 1 -11 -11 -21 -22 -21 -25 0 -3 18 -16 40 -29 22 -12
53 -42 68 -65 l27 -42 3 44 c6 83 -58 191 -112 191 -18 0 -16 -3 9 -22z"/>
<path d="M1102 1685 c-114 -119 -182 -268 -182 -402 l0 -53 123 0 c82 0 117 3
107 10 -8 5 -57 10 -109 10 l-94 0 6 82 c5 73 11 94 53 176 32 65 68 116 117
168 38 41 67 78 63 81 -4 4 -42 -29 -84 -72z"/>
<path d="M930 1170 c0 -19 7 -20 99 -20 76 0 100 3 104 14 9 23 -2 26 -105 26
-91 0 -98 -1 -98 -20z"/>
<path d="M1287 1183 c-4 -3 -7 -12 -7 -20 0 -11 90 -13 500 -13 493 0 500 0
500 20 0 20 -7 20 -493 20 -272 0 -497 -3 -500 -7z"/>
<path d="M950 1085 c0 -13 14 -15 82 -13 54 2 83 7 86 16 3 9 -18 12 -82 12
-71 0 -86 -3 -86 -15z"/>
</g>
</svg>
